<?xml version="1.0" encoding="UTF-8" standalone="no"?>
<!-- Created with Inkscape (http://www.inkscape.org/) -->

<svg
   xmlns:dc="http://purl.org/dc/elements/1.1/"
   xmlns:cc="http://creativecommons.org/ns#"
   xmlns:rdf="http://www.w3.org/1999/02/22-rdf-syntax-ns#"
   xmlns:svg="http://www.w3.org/2000/svg"
   xmlns="http://www.w3.org/2000/svg"
   xmlns:sodipodi="http://sodipodi.sourceforge.net/DTD/sodipodi-0.dtd"
   xmlns:inkscape="http://www.inkscape.org/namespaces/inkscape"
   width="215"
   height="180"
   viewBox="0 0 56.885417 47.625"
   version="1.1"
   id="svg141"
   inkscape:version="0.92.0 unknown"
   sodipodi:docname="logotyp.svg">
  <defs
     id="defs135">
    <clipPath
       id="clipPath26"
       clipPathUnits="userSpaceOnUse">
      <path
         inkscape:connector-curvature="0"
         id="path24"
         d="M 0,255.118 H 255.12 V 0 H 0 Z" />
    </clipPath>
  </defs>
  <sodipodi:namedview
     id="base"
     pagecolor="#ffffff"
     bordercolor="#666666"
     borderopacity="1.0"
     inkscape:pageopacity="0.0"
     inkscape:pageshadow="2"
     inkscape:zoom="1.4142136"
     inkscape:cx="145.9562"
     inkscape:cy="28.456141"
     inkscape:document-units="mm"
     inkscape:current-layer="layer1"
     showgrid="false"
     units="px"
     inkscape:window-width="1301"
     inkscape:window-height="744"
     inkscape:window-x="65"
     inkscape:window-y="24"
     inkscape:window-maximized="1" />
  <metadata
     id="metadata138">
    <rdf:RDF>
      <cc:Work
         rdf:about="">
        <dc:format>image/svg+xml</dc:format>
        <dc:type
           rdf:resource="http://purl.org/dc/dcmitype/StillImage" />
        <dc:title></dc:title>
      </cc:Work>
    </rdf:RDF>
  </metadata>
  <g
     inkscape:label="Layer 1"
     inkscape:groupmode="layer"
     id="layer1"
     transform="translate(0,-249.37498)">
    <g
       transform="matrix(0.35201658,0,0,-0.35239537,-16.464002,317.34483)"
       inkscape:label="Logotyp_Wojtek_propozycja"
       id="g18">
      <g
         id="g20">
        <g
           clip-path="url(#clipPath26)"
           id="g22">
          <g
             transform="translate(138.4668,104.5381)"
             id="g28">
            <path
               inkscape:connector-curvature="0"
               id="path30"
               style="fill:#231f20;fill-opacity:1;fill-rule:nonzero;stroke:none"
               d="m 0,0 c -12.666,14.39 -25.332,28.778 -37.998,43.167 9.305,2.046 18.607,4.091 27.912,6.137 C -6.723,32.869 -3.361,16.435 0,0 M -15.871,84.529 C -4.748,77.485 6.373,70.442 17.494,63.398 l -27.797,-6.085 c -1.857,9.072 -3.713,18.144 -5.568,27.216 M 21.166,59.192 C 11.006,56.959 0.844,54.725 -9.316,52.49 c -0.133,0.646 -0.264,1.29 -0.397,1.935 10.274,2.249 20.549,4.498 30.822,6.747 0.957,0.21 0.776,2.517 0.092,2.95 -12.705,8.048 -25.41,16.094 -38.115,24.14 -0.758,0.481 -0.818,-1.574 -0.76,-1.866 2.004,-9.793 4.008,-19.587 6.012,-29.38 -9.563,-2.094 -19.125,-4.187 -28.688,-6.281 6.807,10.005 13.612,20.009 20.418,30.013 0.479,0.702 -0.072,3.553 -0.74,2.57 -7.57,-11.13 -15.142,-22.259 -22.715,-33.39 -0.271,-0.399 -0.537,-2.992 0.412,-2.783 10.635,2.327 21.268,4.655 31.903,6.983 0.133,-0.646 0.263,-1.291 0.396,-1.937 -9.896,-2.174 -19.791,-4.35 -29.687,-6.526 -0.932,-0.206 -0.723,-2.272 -0.254,-2.803 13.894,-15.786 27.791,-31.569 41.683,-47.353 0.789,-0.896 1,1.334 0.922,1.72 -3.572,17.459 -7.142,34.917 -10.715,52.374 9.502,2.088 19.002,4.177 28.504,6.266 C 14.34,39.193 8.904,22.517 3.469,5.842 3.217,5.072 3.971,2.243 4.463,3.747 c 5.746,17.634 11.494,35.267 17.242,52.899 0.119,0.361 0.363,2.745 -0.539,2.546" />
          </g>
          <g
             transform="translate(61.9766,88.2383)"
             id="g32">
            <path
               inkscape:connector-curvature="0"
               id="path34"
               style="fill:#231f20;fill-opacity:1;fill-rule:nonzero;stroke:none"
               d="M 0,0 H 0.191 0 0.191 c 0.546,-0.153 0.995,-0.505 1.338,-1.052 0.039,-0.599 0.165,-1.333 0.383,-2.2 v -1.721 -0.381 -0.958 c 0.049,-0.254 0.082,-0.573 0.096,-0.955 0,-0.179 0.03,-0.371 0.096,-0.574 V -8.989 L 2.199,-9.18 v -0.287 -0.382 l 0.096,-0.478 c -0.027,-0.498 0.006,-1.103 0.096,-1.818 v -0.286 L 2.486,-13.1 v -0.288 -0.477 -0.573 l -0.095,-0.575 v -0.573 -0.574 l -0.096,-0.478 c -0.511,-2.307 -1.817,-3.232 -3.92,-2.773 -2.806,0.842 -4.973,2.754 -6.503,5.737 l -0.286,-1.434 v -0.287 l -0.096,-0.669 -0.095,-0.288 -0.096,-0.286 v -0.383 l -0.096,-0.286 -0.096,-0.479 -0.095,-0.382 -0.287,-1.625 -0.096,-0.287 -0.192,-0.383 c -0.051,-0.088 -0.083,-0.218 -0.095,-0.383 -0.204,-0.216 -0.428,-0.535 -0.668,-0.956 -0.067,-0.011 -0.129,-0.076 -0.192,-0.191 -0.32,0.051 -0.639,-0.044 -0.957,-0.286 l -0.286,0.094 c -0.486,0.333 -0.931,0.842 -1.339,1.531 -0.027,0.421 -0.153,0.93 -0.381,1.53 l -0.193,2.295 -0.096,0.382 c -0.064,0.268 -0.095,0.587 -0.095,0.957 l -0.096,0.382 v 0.765 l -0.095,0.382 v 1.053 l -0.095,0.382 -0.096,0.573 c 0,0.332 -0.032,0.746 -0.096,1.243 l -0.095,0.574 c 0,0.153 -0.033,0.313 -0.096,0.478 v 0.573 c -0.028,0.218 -0.09,0.44 -0.191,0.67 0.062,0.574 0,1.212 -0.191,1.912 -0.028,0.295 -0.028,0.677 0,1.149 -0.052,0.19 -0.086,0.445 -0.097,0.763 v 0.288 c 0.011,0.064 -0.018,0.127 -0.095,0.191 0.063,0.217 0.031,0.471 -0.096,0.764 l 0.096,0.384 -0.096,0.382 c 0.268,0.332 0.618,0.65 1.053,0.956 0.688,-0.013 1.262,-0.363 1.72,-1.052 l 0.096,-1.913 c -0.013,-0.088 0.02,-0.183 0.096,-0.286 l -0.096,-0.383 v -0.286 -0.287 c 0.077,-0.268 0.106,-0.586 0.096,-0.956 l 0.191,-0.766 v -0.286 -0.478 l 0.192,-1.244 0.095,-1.051 v -0.287 c 0.192,-0.599 0.254,-1.269 0.192,-2.007 l 0.094,-0.192 v -0.382 l 0.192,-1.913 v -0.287 l 0.095,-0.286 v -0.288 c 0.231,0.459 0.356,1.032 0.382,1.722 l 0.193,0.191 v 0.287 c 0.038,0.332 0.134,0.682 0.287,1.052 v 0.382 l 0.095,0.287 0.191,0.478 0.096,0.382 0.191,0.574 0.19,0.287 c 0.446,0.383 1.02,0.67 1.722,0.861 0.331,-0.191 0.745,-0.478 1.243,-0.861 0.867,-3.11 2.651,-5.279 5.355,-6.502 0.459,0.064 0.775,0.351 0.956,0.86 0.126,0.535 0.191,1.174 0.191,1.913 0.116,0.497 0.116,1.039 0,1.625 v 1.339 l -0.095,0.765 v 0.287 c 0.076,0.432 0.044,0.944 -0.096,1.53 0.024,0.306 0.024,0.689 0,1.147 l -0.095,0.288 c 0.062,0.598 0.029,1.331 -0.096,2.198 v 0.383 c -0.014,0.344 -0.014,0.758 0,1.243 -0.128,0.421 -0.224,0.93 -0.288,1.529 l -0.191,0.766 C -0.907,-0.67 -0.587,-0.256 0,0" />
          </g>
          <g
             transform="translate(68.46,71.791)"
             id="g36">
            <path
               inkscape:connector-curvature="0"
               id="path38"
               style="fill:#231f20;fill-opacity:1;fill-rule:nonzero;stroke:none"
               d="M 0,0 C -0.153,-1.021 0.005,-2.071 0.478,-3.155 1.573,-1.562 1.414,-0.509 0,0 M 0,2.296 C 1.847,2.219 2.993,1.198 3.441,-0.765 3.633,-3.658 2.677,-5.347 0.573,-5.832 -1.874,-4.646 -2.8,-2.352 -2.2,1.053 c 0.178,0.14 0.337,0.332 0.478,0.573 0.574,0.064 1.148,0.287 1.722,0.67" />
          </g>
          <g
             transform="translate(74.8467,73.1299)"
             id="g40">
            <path
               inkscape:connector-curvature="0"
               id="path42"
               style="fill:#231f20;fill-opacity:1;fill-rule:nonzero;stroke:none"
               d="m 0,0 c 0.483,0 0.962,-0.191 1.435,-0.573 0.038,-0.294 0.163,-0.581 0.381,-0.861 l 0.096,-0.67 0.096,-0.19 0.096,-0.192 V -2.772 L 2.199,-3.06 2.582,-4.207 C 2.568,-4.296 2.601,-4.392 2.678,-4.494 l 0.191,-0.765 v -0.287 c 0.101,-0.318 0.163,-0.7 0.191,-1.147 0.087,-0.268 0.153,-0.586 0.191,-0.955 v -0.288 -0.765 l 0.096,-0.286 -0.096,-1.722 v -0.383 l -0.096,-0.669 v -0.286 C 2.988,-12.327 2.86,-12.679 2.773,-13.1 L 2.39,-13.769 2.008,-14.438 c -0.306,-0.153 -0.593,-0.409 -0.861,-0.764 l -0.574,-0.097 c -0.065,0.013 -0.128,-0.018 -0.19,-0.096 -0.473,0.065 -0.918,0.223 -1.339,0.479 -0.18,0.446 -0.307,0.987 -0.383,1.625 0.268,0.089 0.556,0.026 0.86,-0.19 0.408,0.381 0.791,0.924 1.148,1.625 C 1.254,-8.49 0.746,-5.08 -0.86,-1.625 -0.927,-0.949 -0.639,-0.408 0,0 M -0.286,5.164 C 0.211,5.023 0.593,4.641 0.86,4.017 0.719,3.201 0.24,2.723 -0.574,2.582 -1.581,3.168 -1.71,3.997 -0.956,5.068 c 0.228,-0.064 0.451,-0.031 0.67,0.096" />
          </g>
          <g
             transform="translate(82.8594,72.748)"
             id="g44">
            <path
               inkscape:connector-curvature="0"
               id="path46"
               style="fill:#231f20;fill-opacity:1;fill-rule:nonzero;stroke:none"
               d="M 0,0 C 1.02,0.05 1.53,-0.428 1.53,-1.435 L 1.148,-1.816 c -0.908,0 -1.639,-0.448 -2.2,-1.339 1.301,-0.754 2.797,-0.911 4.494,-0.479 0.318,-0.012 0.67,-0.076 1.052,-0.191 v -0.096 0.096 -0.096 L 4.303,-4.686 C 1.97,-6.599 -0.485,-6.472 -3.06,-4.303 -3.174,-3.87 -3.24,-3.328 -3.25,-2.678 -2.538,-1.466 -1.453,-0.574 0,0" />
          </g>
          <g
             transform="translate(90.7773,75.042)"
             id="g48">
            <path
               inkscape:connector-curvature="0"
               id="path50"
               style="fill:#231f20;fill-opacity:1;fill-rule:nonzero;stroke:none"
               d="m 0,0 c 0.382,-0.088 0.764,-0.279 1.146,-0.573 0.126,-0.242 0.222,-0.529 0.288,-0.862 l 0.095,-0.19 C 1.567,-2.173 1.502,-2.875 1.339,-3.729 1.388,-4.176 1.357,-4.717 1.243,-5.354 v -0.574 -0.478 c -0.091,-0.459 -0.091,-0.937 0,-1.434 L 1.146,-8.031 v -0.478 l -0.573,-0.67 -1.147,0.286 c -0.831,2.525 -0.956,5.33 -0.383,8.415 z M -1.147,7.076 C -0.702,6.859 -0.32,6.477 0,5.93 -0.205,5.432 -0.621,5.176 -1.243,5.164 -2.266,5.649 -2.232,6.285 -1.147,7.076" />
          </g>
          <g
             transform="translate(97.373,71.8867)"
             id="g52">
            <path
               inkscape:connector-curvature="0"
               id="path54"
               style="fill:#231f20;fill-opacity:1;fill-rule:nonzero;stroke:none"
               d="M 0,0 -0.286,-0.286 C 0.019,-0.324 0.115,-0.229 0,0 m 0.956,2.2 h 0.191 0.479 0.19 C 2.073,1.932 2.36,1.709 2.678,1.53 3.06,-1.108 1.816,-2.607 -1.052,-2.964 c 0.306,-0.408 0.784,-0.662 1.435,-0.765 1.453,0.013 1.836,-0.37 1.147,-1.147 -3.2,-1.071 -4.889,-0.115 -5.066,2.868 0.775,2.32 2.273,3.723 4.492,4.208" />
          </g>
          <g
             transform="translate(104.6211,72.748)"
             id="g56">
            <path
               inkscape:connector-curvature="0"
               id="path58"
               style="fill:#231f20;fill-opacity:1;fill-rule:nonzero;stroke:none"
               d="M 0,0 C 1.021,0.05 1.529,-0.428 1.529,-1.435 L 1.147,-1.816 c -0.905,0 -1.637,-0.448 -2.2,-1.339 1.301,-0.754 2.799,-0.911 4.495,-0.479 0.319,-0.012 0.669,-0.076 1.051,-0.191 v -0.096 0.096 -0.096 l -0.19,-0.765 c -2.334,-1.913 -4.787,-1.786 -7.364,0.383 -0.114,0.433 -0.178,0.975 -0.19,1.625 C -2.537,-1.466 -1.453,-0.574 0,0" />
          </g>
          <g
             transform="translate(111.0078,88.2383)"
             id="g60">
            <path
               inkscape:connector-curvature="0"
               id="path62"
               style="fill:#231f20;fill-opacity:1;fill-rule:nonzero;stroke:none"
               d="m 0,0 c 0.612,0 1.186,-0.288 1.722,-0.861 l 0.287,-1.53 C 1.982,-2.659 2.016,-2.914 2.104,-3.156 L 2.009,-3.348 C 2.073,-3.641 2.104,-4.023 2.104,-4.494 V -4.781 -5.068 L 2.2,-6.312 C 2.187,-6.604 2.219,-6.923 2.296,-7.267 V -7.65 -8.032 -9.275 -9.658 C 2.258,-10.002 2.288,-10.354 2.391,-10.71 L 2.296,-10.901 C 2.409,-11.5 2.441,-12.233 2.391,-13.1 v -0.382 l 0.191,-1.913 c 0.969,1.083 2.085,1.211 3.347,0.382 0.089,-0.28 0.248,-0.566 0.478,-0.86 0,-0.294 0.096,-0.612 0.287,-0.956 0.012,-0.318 0.108,-0.7 0.286,-1.148 v -0.287 l 0.192,-0.382 c 0.038,-0.268 0.134,-0.586 0.286,-0.957 v -0.286 l 0.191,-0.287 c 0,-0.204 -0.03,-0.459 -0.095,-0.764 v -0.288 c -1.351,-0.829 -2.402,0.382 -3.156,3.633 -0.293,-0.484 -0.484,-1.09 -0.573,-1.816 l -0.096,-0.192 -0.286,-0.764 -0.192,-0.287 c -0.279,-0.038 -0.535,-0.198 -0.765,-0.478 -0.294,0.165 -0.612,0.229 -0.956,0.192 -0.383,0.446 -0.7,1.051 -0.956,1.816 0,0.522 -0.095,1.098 -0.287,1.722 0.039,0.088 0.039,0.183 0,0.286 v 0.86 l -0.096,0.288 c 0,0.152 -0.031,0.313 -0.095,0.478 0.089,0.446 0.057,0.925 -0.096,1.434 l 0.096,0.191 -0.096,2.296 -0.096,0.286 c 0.076,0.382 0.076,0.829 0,1.339 v 0.286 c 0.051,0.446 0.02,0.926 -0.094,1.434 l 0.094,0.287 c 0.013,0.064 -0.019,0.127 -0.094,0.191 l 0.094,0.287 -0.094,0.383 v 1.052 l -0.096,0.764 v 0.479 l -0.192,2.103 -0.095,0.765 -0.191,0.766 C -0.599,-0.766 -0.344,-0.383 0,0" />
          </g>
          <g
             transform="translate(128.3154,88.8115)"
             id="g64">
            <path
               inkscape:connector-curvature="0"
               id="path66"
               style="fill:#231f20;fill-opacity:1;fill-rule:nonzero;stroke:none"
               d="m 0,0 c 0.638,-0.012 1.243,-0.268 1.816,-0.765 0.026,-0.319 0.089,-0.67 0.192,-1.051 v -0.67 -0.287 l 0.096,-0.191 v -0.383 l 0.095,-0.19 V -4.59 L 2.295,-5.067 V -5.45 -5.833 -6.215 L 2.391,-6.789 C 2.353,-7.159 2.384,-7.604 2.485,-8.128 L 2.391,-8.51 2.485,-8.988 c -0.14,-0.714 -0.14,-1.575 0,-2.581 l -0.094,-0.383 v -0.479 -0.477 c -0.078,-0.548 -0.046,-1.25 0.094,-2.104 v -0.287 -0.383 -0.286 c 0,-0.268 0.033,-0.523 0.096,-0.765 l 0.096,-1.913 v -0.287 c 0.688,-0.011 1.454,0.18 2.295,0.574 0.344,0.038 0.758,0.134 1.244,0.287 l 0.286,0.096 1.912,0.191 H 9.18 c 0.547,-0.166 1.09,-0.452 1.625,-0.861 -0.051,-0.42 -0.242,-0.834 -0.575,-1.243 -0.561,0 -1.197,-0.127 -1.912,-0.382 H 8.032 L 7.745,-20.366 6.979,-20.558 C 6.699,-20.57 6.381,-20.666 6.023,-20.845 5.514,-20.959 4.907,-21.182 4.207,-21.514 L 3.92,-21.609 2.964,-21.896 c -0.803,-0.051 -1.568,0.107 -2.295,0.477 -0.076,0.318 -0.236,0.67 -0.479,1.053 0,0.356 -0.063,0.771 -0.19,1.243 l -0.096,4.876 -0.095,0.574 0.095,0.286 -0.095,0.574 c 0.063,0.344 0.095,0.758 0.095,1.244 l -0.095,0.477 0.095,0.67 -0.095,0.478 v 0.67 0.573 l -0.096,0.573 0.096,0.574 -0.096,0.669 v 0.862 c -0.026,0.318 -0.089,0.669 -0.192,1.051 v 0.382 c 0.013,0.408 -0.019,0.949 -0.095,1.626 l -0.286,1.529 v 0.574 C -0.682,-0.517 -0.395,-0.229 0,0" />
          </g>
          <g
             transform="translate(146.2539,74.8506)"
             id="g68">
            <path
               inkscape:connector-curvature="0"
               id="path70"
               style="fill:#231f20;fill-opacity:1;fill-rule:nonzero;stroke:none"
               d="M 0,0 C 0.355,-0.025 0.72,-0.179 1.089,-0.458 1.128,-0.854 1.039,-1.281 0.821,-1.74 0.466,-1.854 0.069,-1.854 -0.364,-1.74 L -0.65,-1.836 c -1.428,-0.905 -2.461,-2.302 -3.099,-4.187 0.356,0.203 0.688,0.503 0.994,0.899 0.23,0.127 0.447,0.312 0.651,0.555 l 0.63,0.554 c 0.192,0.357 0.497,0.785 0.919,1.282 0.394,0.356 0.944,0.688 1.644,0.993 0.345,-0.088 0.739,-0.267 1.185,-0.535 L 2.467,-2.371 C 2.67,-2.728 3.002,-3.098 3.46,-3.479 l 0.097,-0.269 0.172,-0.095 0.19,-0.268 c 0.013,-0.065 0.07,-0.126 0.173,-0.192 0.114,-0.318 0.331,-0.65 0.65,-0.994 0.05,-0.267 0.203,-0.51 0.458,-0.726 0.052,-0.141 0.142,-0.261 0.269,-0.364 L 5.66,-6.77 5.928,-7.132 5.832,-7.859 C 5.194,-8.254 4.468,-8.222 3.652,-7.764 3.46,-7.368 3.155,-6.973 2.733,-6.578 2.746,-6.514 2.715,-6.451 2.639,-6.387 L 2.543,-6.215 C 2.53,-6.15 2.473,-6.087 2.371,-6.023 l -0.097,0.268 c -0.011,0.064 -0.076,0.127 -0.191,0.191 0.014,0.05 -0.012,0.108 -0.075,0.171 l -0.096,0.269 c -0.229,0.179 -0.447,0.428 -0.65,0.745 L 0.993,-4.207 0.535,-4.379 c -0.892,-1.694 -2.321,-2.975 -4.284,-3.843 -0.331,0.076 -0.758,0.14 -1.281,0.191 l -0.268,0.076 c -0.077,0.37 -0.262,0.739 -0.555,1.109 0.179,0.37 0.299,0.823 0.365,1.358 l 0.19,0.554 0.076,0.269 c 0.497,0.509 0.925,1.178 1.282,2.008 0.203,0.14 0.389,0.356 0.554,0.65 l 0.269,0.171 0.096,0.384 0.553,0.362 0.632,0.364 0.19,0.171 c 0.23,0.066 0.472,0.185 0.727,0.365 C -0.664,-0.179 -0.357,-0.113 0,0" />
          </g>
          <g
             transform="translate(156.1787,83.0742)"
             id="g72">
            <path
               inkscape:connector-curvature="0"
               id="path74"
               style="fill:#231f20;fill-opacity:1;fill-rule:nonzero;stroke:none"
               d="M 0,0 C 0.765,-0.076 1.37,-0.49 1.816,-1.243 1.867,-1.74 1.836,-2.313 1.721,-2.964 V -3.633 -4.016 -4.398 C 1.656,-4.666 1.625,-4.984 1.625,-5.354 2.122,-5.558 2.695,-5.653 3.346,-5.642 3.575,-5.718 3.831,-5.845 4.111,-6.023 L 4.398,-6.119 C 4.448,-7.317 3.557,-7.986 1.721,-8.128 1.504,-10.346 1.95,-12.576 3.06,-14.82 l 1.434,-0.287 c 0.026,-0.51 -0.134,-1.052 -0.478,-1.626 -0.179,-0.05 -0.37,-0.146 -0.575,-0.288 H 3.155 c -0.064,0.013 -0.127,-0.017 -0.191,-0.094 l -1.817,0.67 c -1.503,2.229 -2.206,4.907 -2.104,8.031 -0.662,0.294 -1.077,0.835 -1.243,1.625 0.191,0.561 0.574,1.007 1.148,1.339 0.089,0.561 0.121,1.263 0.095,2.104 v 2.103 l 0.096,0.287 z" />
          </g>
          <g
             transform="translate(167.8057,74.8506)"
             id="g76">
            <path
               inkscape:connector-curvature="0"
               id="path78"
               style="fill:#231f20;fill-opacity:1;fill-rule:nonzero;stroke:none"
               d="M 0,0 C 0.356,-0.025 0.72,-0.179 1.09,-0.458 1.128,-0.854 1.039,-1.281 0.822,-1.74 0.466,-1.854 0.069,-1.854 -0.363,-1.74 L -0.65,-1.836 c -1.428,-0.905 -2.46,-2.302 -3.099,-4.187 0.357,0.203 0.689,0.503 0.995,0.899 0.23,0.127 0.446,0.312 0.65,0.555 l 0.631,0.554 c 0.192,0.357 0.498,0.785 0.918,1.282 0.395,0.356 0.944,0.688 1.645,0.993 0.345,-0.088 0.739,-0.267 1.185,-0.535 L 2.467,-2.371 C 2.67,-2.728 3.002,-3.098 3.462,-3.479 L 3.557,-3.748 3.729,-3.843 3.92,-4.111 c 0.013,-0.065 0.07,-0.126 0.173,-0.192 0.114,-0.318 0.332,-0.65 0.65,-0.994 0.05,-0.267 0.203,-0.51 0.459,-0.726 0.05,-0.141 0.14,-0.261 0.267,-0.364 L 5.66,-6.77 5.929,-7.132 5.833,-7.859 C 5.194,-8.254 4.468,-8.222 3.652,-7.764 3.462,-7.368 3.155,-6.973 2.734,-6.578 2.747,-6.514 2.716,-6.451 2.639,-6.387 L 2.543,-6.215 C 2.531,-6.15 2.474,-6.087 2.371,-6.023 l -0.096,0.268 c -0.012,0.064 -0.076,0.127 -0.19,0.191 0.012,0.05 -0.014,0.108 -0.077,0.171 l -0.096,0.269 c -0.229,0.179 -0.446,0.428 -0.65,0.745 l -0.267,0.172 -0.46,-0.172 c -0.892,-1.694 -2.321,-2.975 -4.284,-3.843 -0.331,0.076 -0.758,0.14 -1.281,0.191 l -0.267,0.076 c -0.077,0.37 -0.261,0.739 -0.556,1.109 0.18,0.37 0.3,0.823 0.365,1.358 l 0.191,0.554 0.075,0.269 c 0.498,0.509 0.926,1.178 1.282,2.008 0.204,0.14 0.389,0.356 0.555,0.65 l 0.268,0.171 0.096,0.384 0.554,0.362 0.631,0.364 0.191,0.171 c 0.229,0.066 0.471,0.185 0.727,0.365 C -0.662,-0.179 -0.357,-0.113 0,0" />
          </g>
          <g
             transform="translate(184.7686,75.6162)"
             id="g80">
            <path
               inkscape:connector-curvature="0"
               id="path82"
               style="fill:#231f20;fill-opacity:1;fill-rule:nonzero;stroke:none"
               d="M 0,0 C 0.42,-0.077 0.803,-0.3 1.147,-0.67 1.159,-1.09 1.224,-1.6 1.339,-2.199 L 1.243,-2.391 1.339,-3.06 v -0.382 l 0.096,-0.287 v -0.287 l 0.094,-0.287 c -0.038,-0.459 0.027,-0.936 0.192,-1.434 0,-0.217 0.031,-0.44 0.095,-0.669 v -1.722 c -1.619,-1.147 -3.467,-0.7 -5.545,1.339 l -0.478,0.096 c -0.639,-2.27 -1.786,-3.067 -3.443,-2.39 -0.102,0.369 -0.293,0.752 -0.574,1.146 l -0.287,1.339 c 0.013,0.103 -0.018,0.199 -0.094,0.286 v 0.289 l -0.192,1.529 -0.096,0.191 v 0.383 c 0.013,0.103 -0.019,0.198 -0.096,0.286 l 0.288,1.052 c 1.555,0.472 2.351,-0.39 2.389,-2.582 1.251,1.836 3.003,1.709 5.26,-0.382 0.051,0.332 0.02,0.715 -0.095,1.148 v 2.486 c 0.076,0.267 0.107,0.586 0.095,0.956 l 0.095,0.286 C -0.727,-0.452 -0.409,-0.229 0,0" />
          </g>
          <g
             transform="translate(190.0078,75.042)"
             id="g84">
            <path
               inkscape:connector-curvature="0"
               id="path86"
               style="fill:#231f20;fill-opacity:1;fill-rule:nonzero;stroke:none"
               d="M 0,0 C 0.383,-0.088 0.765,-0.279 1.148,-0.573 1.274,-0.815 1.371,-1.102 1.435,-1.435 L 1.53,-1.625 C 1.568,-2.173 1.504,-2.875 1.339,-3.729 1.39,-4.176 1.357,-4.717 1.243,-5.354 v -0.574 -0.478 c -0.089,-0.459 -0.089,-0.937 0,-1.434 L 1.148,-8.031 v -0.478 l -0.574,-0.67 -1.148,0.286 c -0.828,2.525 -0.955,5.33 -0.382,8.415 z M -1.147,7.076 C -0.7,6.859 -0.317,6.477 0,5.93 -0.204,5.432 -0.618,5.176 -1.243,5.164 -2.264,5.649 -2.23,6.285 -1.147,7.076" />
          </g>
          <g
             transform="translate(196.6055,71.8867)"
             id="g88">
            <path
               inkscape:connector-curvature="0"
               id="path90"
               style="fill:#231f20;fill-opacity:1;fill-rule:nonzero;stroke:none"
               d="M 0,0 -0.287,-0.286 C 0.02,-0.324 0.115,-0.229 0,0 M 0.956,2.2 H 1.147 1.625 1.817 C 2.072,1.932 2.359,1.709 2.678,1.53 3.06,-1.108 1.817,-2.607 -1.051,-2.964 c 0.305,-0.408 0.783,-0.662 1.434,-0.765 1.453,0.013 1.836,-0.37 1.147,-1.147 -3.2,-1.071 -4.888,-0.115 -5.067,2.868 0.777,2.32 2.275,3.723 4.493,4.208" />
          </g>
          <g
             transform="translate(203.8535,72.748)"
             id="g92">
            <path
               inkscape:connector-curvature="0"
               id="path94"
               style="fill:#231f20;fill-opacity:1;fill-rule:nonzero;stroke:none"
               d="M 0,0 C 1.021,0.05 1.53,-0.428 1.53,-1.435 L 1.147,-1.816 c -0.905,0 -1.637,-0.448 -2.199,-1.339 1.301,-0.754 2.799,-0.911 4.494,-0.479 0.319,-0.012 0.67,-0.076 1.052,-0.191 v -0.096 0.096 -0.096 L 4.303,-4.686 C 1.97,-6.599 -0.485,-6.472 -3.06,-4.303 -3.175,-3.87 -3.238,-3.328 -3.251,-2.678 -2.536,-1.466 -1.453,-0.574 0,0" />
          </g>
        </g>
      </g>
    </g>
  </g>
</svg>
